# xmcd
#
# Track frame offsets: 
#        150
#        19487
#        38539
#        59137
#        82579
#        104708
#        133651
#        158475
#        180836
#        200268
#        221619
#        244257
#        274162
#        290536
#        314666
#        333584
#
# Disc length: 4787 seconds
#
# Revision: 0
# Processed by: cddbd v1.5.2PL0 Copyright (c) Steve Scherf et al.
# Submitted via: ExactAudioCopy v1.1
#
DISCID=ea12b110
DTITLE=Various Artist - Akella Presents - vol.101 - Various Styles Of
DTITLE=Blues  CD1
DYEAR=2017
DGENRE=Blues
TTITLE0=Jimmy Nalls - House Of Love
TTITLE1=Troy Turner - Come To Your Senses
TTITLE2=Don Ray Band - Ball And Chain
TTITLE3=The Joey Gilmore Band - Brownskin Woman
TTITLE4=Solomon Cole Band - Ring Your Bell
TTITLE5=Buddy Guy - Miss Ida B
TTITLE6=Bare Wires - Love Me Or Leave Me
TTITLE7=TW Henderson and The Blues of Cain - 18th Birthday Blues 
TTITLE8=Mike Henderson and The Bluebloods - So Sad To Be Lonesome
TTITLE9=Bare Bones Boogie Band - Black Cat Strikes Back
TTITLE10=Taj Mahal and Keb' Mo' - Don't Leave Me Here
TTITLE11=Samuel Eddy - Blues On Your Doorstep
TTITLE12=Pete Gage - Clean Like A New Machine
TTITLE13=John Mayall - Undercover Agent For The Blues
TTITLE14=Dion - Drop Down Mama
TTITLE15=Albert Castiglia - Little Havana Blues
EXTD=
EXTT0=
EXTT1=
EXTT2=
EXTT3=
EXTT4=
EXTT5=
EXTT6=
EXTT7=
EXTT8=
EXTT9=
EXTT10=
EXTT11=
EXTT12=
EXTT13=
EXTT14=
EXTT15=
PLAYORDER=
